<svg width="32" height="32" viewBox="0 0 32 32" fill="none" xmlns="http://www.w3.org/2000/svg">
<rect width="32" height="32" rx="16" fill="white"/>
<path d="M14.636 23H10.931V22.962C11.083 22.677 11.197 22.411 11.292 22.164C11.387 21.917 11.463 21.67 11.52 21.404C11.577 21.157 11.615 20.891 11.653 20.587C11.672 20.302 11.691 19.96 11.691 19.561V12.531C11.691 12.151 11.672 11.809 11.653 11.505C11.615 11.22 11.577 10.954 11.52 10.688C11.463 10.441 11.387 10.194 11.292 9.947C11.197 9.7 11.083 9.434 10.931 9.13V9.092H20.279L21.02 12.474L20.849 12.512C20.583 12.265 20.317 11.961 20.032 11.619C19.747 11.277 19.462 10.935 19.177 10.631C18.892 10.327 18.626 10.061 18.36 9.833C18.094 9.605 17.847 9.491 17.638 9.491L13.876 9.358V15.628H15.89C16.118 15.628 16.327 15.571 16.555 15.419C16.764 15.286 16.973 15.115 17.163 14.906C17.353 14.716 17.543 14.488 17.733 14.26C17.904 14.032 18.075 13.823 18.246 13.633H18.417V17.927H18.246C18.094 17.775 17.923 17.585 17.752 17.357C17.562 17.129 17.372 16.92 17.182 16.73C16.973 16.54 16.764 16.369 16.555 16.217C16.327 16.084 16.118 16.008 15.89 16.008H13.876V19.561C13.876 19.96 13.876 20.302 13.895 20.587C13.914 20.891 13.952 21.157 14.009 21.404C14.066 21.67 14.142 21.917 14.256 22.164C14.351 22.411 14.484 22.677 14.636 22.962V23Z" fill="black"/>
</svg>
